<?xml version="1.0" standalone="no"?>
<!DOCTYPE svg PUBLIC "-//W3C//DTD SVG 20010904//EN"
 "http://www.w3.org/TR/2001/REC-SVG-20010904/DTD/svg10.dtd">
<svg version="1.0" xmlns="http://www.w3.org/2000/svg"
 width="800.000000pt" height="133.000000pt" viewBox="0 0 800.000000 133.000000"
 preserveAspectRatio="xMidYMid meet">
<metadata>
Created by potrace 1.16, written by Peter Selinger 2001-2019
</metadata>
<g transform="translate(0.000000,133.000000) scale(0.100000,-0.100000)"
fill="#000000" stroke="none">
<path d="M112 1313 c-44 -21 -100 -89 -107 -127 -3 -17 -5 -263 -3 -547 l3
-516 27 -36 c16 -19 43 -46 60 -59 l33 -23 3875 0 3875 0 33 23 c17 13 44 40
60 59 l27 36 0 542 0 542 -27 36 c-16 19 -43 46 -60 59 l-33 23 -3865 2
c-3554 2 -3868 1 -3898 -14z m4028 -643 l0 -240 -50 0 -50 0 0 240 0 240 50 0
50 0 0 -240z m180 0 l0 -240 -50 0 -50 0 0 240 0 240 50 0 50 0 0 -240z
m-3752 203 c3 -18 -2 -23 -17 -23 -20 0 -21 -6 -21 -85 0 -78 2 -85 20 -85 13
0 20 -7 20 -20 0 -18 -7 -20 -65 -20 -58 0 -65 2 -65 20 0 11 7 20 15 20 12 0
15 16 15 85 0 69 -3 85 -15 85 -9 0 -15 9 -15 25 0 25 1 26 63 23 56 -3 62 -5
65 -25z m212 -83 c0 -96 -2 -112 -20 -130 -36 -36 -91 -38 -135 -6 -19 14 -19
15 -1 35 14 16 22 18 32 10 7 -6 23 -9 36 -7 22 3 23 8 26 93 3 109 5 115 37
115 l25 0 0 -110z m5631 -120 c43 -124 78 -229 79 -233 0 -4 -26 -7 -57 -5
l-56 3 -15 53 -15 53 -81 -3 -81 -3 -14 -52 -14 -53 -58 0 -58 0 15 43 c9 23
42 116 74 207 32 91 63 178 69 193 10 27 13 28 72 25 l62 -3 78 -225z m-3421
180 c0 -29 -4 -40 -15 -40 -13 0 -15 -23 -15 -150 0 -127 2 -150 15 -150 11 0
15 -11 15 -40 l0 -40 -90 0 -90 0 0 40 c0 33 3 40 20 40 19 0 20 7 20 150 0
143 -1 150 -20 150 -17 0 -20 7 -20 40 l0 40 90 0 90 0 0 -40z m1800 -133 c0
-159 -2 -176 -22 -217 -30 -58 -75 -81 -148 -78 l-55 3 -3 43 -3 42 38 -6 c30
-4 44 -1 63 14 25 20 25 23 28 196 l4 176 49 0 49 0 0 -173z m410 133 c0 -29
-4 -40 -15 -40 -13 0 -15 -23 -15 -150 0 -127 2 -150 15 -150 11 0 15 -11 15
-40 l0 -40 -90 0 -90 0 0 40 c0 33 3 40 20 40 19 0 20 7 20 150 0 143 -1 150
-20 150 -17 0 -20 7 -20 40 l0 40 90 0 90 0 0 -40z m335 29 c23 -7 57 -28 81
-53 90 -90 80 -261 -21 -344 -50 -41 -96 -52 -219 -52 l-106 0 0 230 0 230
113 0 c61 0 130 -5 152 -11z m475 -29 l0 -40 -80 0 -80 0 0 -55 0 -55 70 0 70
0 0 -40 0 -40 -70 0 -70 0 0 -55 0 -55 85 0 85 0 0 -40 0 -40 -140 0 -140 0 0
230 0 230 135 0 135 0 0 -40z m-2450 -40 l0 -50 35 0 c33 0 35 -2 35 -35 0
-33 -2 -35 -35 -35 l-35 0 0 -89 c0 -95 11 -118 51 -108 18 5 20 1 17 -31 -3
-36 -4 -37 -47 -40 -52 -4 -92 11 -110 41 -9 13 -16 62 -19 125 -5 99 -5 102
-28 102 -21 0 -24 5 -24 35 0 30 3 35 24 35 21 0 25 5 28 37 3 33 7 37 43 49
64 19 65 19 65 -36z m-247 -60 c36 -29 47 -76 47 -207 l0 -113 -50 0 -50 0 0
93 c0 118 -12 165 -46 173 -19 5 -32 1 -47 -15 -20 -19 -22 -35 -25 -136 l-4
-115 -49 0 -49 0 0 165 0 165 50 0 c44 0 50 -2 50 -21 0 -20 1 -20 31 5 39 33
104 36 142 6z m604 0 c42 -25 63 -68 63 -130 l0 -50 -104 0 -105 0 10 -29 c17
-48 89 -63 164 -35 14 6 16 1 13 -32 -4 -45 -18 -51 -112 -53 -76 -1 -128 27
-156 84 -32 65 -20 165 25 215 46 50 145 65 202 30z m583 -155 l0 -165 -50 0
-50 0 0 165 0 165 50 0 50 0 0 -165z m-4171 25 c0 -56 -6 -98 -17 -123 -17
-37 -18 -38 -37 -20 -11 10 -44 36 -72 58 -29 21 -53 40 -53 41 0 1 20 38 45
82 l45 80 45 -17 45 -16 -1 -85z"/>
<path d="M5380 661 l0 -151 38 0 c46 0 99 26 125 62 27 37 29 131 3 174 -25
42 -49 55 -112 61 l-54 6 0 -152z"/>
</g>
</svg>
